<svg xmlns="http://www.w3.org/2000/svg" xmlns:xlink="http://www.w3.org/1999/xlink" width="348" zoomAndPan="magnify" viewBox="0 0 261 193.499995" height="258" preserveAspectRatio="xMidYMid meet" version="1.0"><defs><clipPath id="83107dd6f9"><path d="M 0.335938 0 L 260.664062 0 L 260.664062 192.992188 L 0.335938 192.992188 Z M 0.335938 0 " clip-rule="nonzero"/></clipPath><clipPath id="19107b823e"><path d="M 242.253906 44.167969 C 189.710938 54.679688 154.347656 121.71875 139.25 150.347656 C 136.429688 155.699219 134.199219 159.925781 132.402344 162.808594 C 119.753906 183.113281 108.625 192.703125 97.621094 192.703125 C 96.808594 192.703125 95.996094 192.652344 95.183594 192.546875 C 89.328125 191.796875 81.46875 188.070312 77.277344 174.59375 C 71.488281 155.992188 42.304688 118.402344 22.636719 112.722656 C 6.597656 108.09375 -2.289062 94.191406 1.027344 78.917969 C 5.390625 58.808594 25.851562 50.632812 42.890625 53.152344 C 61.261719 55.867188 80.289062 74.542969 91.414062 88.261719 C 93.535156 90.878906 97.578125 90.75 99.46875 87.957031 C 140.523438 27.203125 197.320312 1.714844 215.988281 0.851562 L 215.988281 0.847656 C 229.058594 -0.722656 238.921875 -0.113281 246.117188 2.703125 C 254.285156 5.902344 259.511719 12.28125 260.460938 20.214844 C 261.8125 31.523438 253.984375 41.820312 242.253906 44.167969 Z M 242.253906 44.167969 " clip-rule="nonzero"/></clipPath><clipPath id="4a54bf6b05"><path d="M 56.160156 94.527344 L 145.203125 94.527344 L 145.203125 127.652344 L 56.160156 127.652344 Z M 56.160156 94.527344 " clip-rule="nonzero"/></clipPath><clipPath id="4340900b87"><path d="M 58.210938 111.460938 C 88.65625 117.148438 102.796875 122.234375 108.03125 123.429688 C 110.050781 123.878906 110.574219 124.03125 112.222656 124.105469 C 114.390625 124.179688 117.980469 124.179688 120 123.65625 C 121.421875 123.355469 122.695312 123.058594 123.367188 122.308594 C 123.890625 121.636719 123.816406 120.738281 123.890625 119.839844 C 123.890625 118.644531 123.070312 117.222656 123.144531 115.949219 C 123.292969 114.453125 123.890625 112.882812 124.566406 111.539062 C 125.238281 110.042969 126.136719 108.769531 127.257812 107.347656 C 128.605469 105.628906 130.175781 103.683594 132.269531 101.886719 C 135.113281 99.417969 141.023438 94.632812 143.117188 94.632812 C 143.941406 94.554688 144.539062 95.15625 144.914062 95.601562 C 145.210938 96.128906 145.285156 97.101562 144.988281 97.699219 C 144.761719 98.222656 144.015625 98.894531 143.417969 98.96875 C 142.667969 98.96875 141.394531 98.296875 141.023438 97.699219 C 140.722656 97.175781 140.796875 96.203125 141.171875 95.679688 C 141.546875 95.078125 142.894531 94.554688 143.566406 94.707031 C 144.164062 94.78125 144.914062 95.527344 145.0625 96.050781 C 145.285156 96.652344 145.210938 97.324219 144.761719 98.070312 C 143.640625 99.941406 138.105469 102.484375 135.335938 105.105469 C 132.71875 107.574219 129.800781 111.3125 128.605469 113.40625 C 128.007812 114.453125 127.632812 114.902344 127.558594 116.027344 C 127.40625 117.445312 128.980469 120.066406 128.679688 121.5625 C 128.378906 122.757812 127.632812 123.65625 126.660156 124.480469 C 125.238281 125.675781 122.769531 126.648438 120.527344 127.171875 C 117.90625 127.769531 114.167969 127.621094 111.699219 127.472656 C 109.902344 127.320312 109.304688 127.171875 107.210938 126.722656 C 101.824219 125.527344 87.910156 120.515625 79.082031 118.570312 C 71.453125 116.773438 60.15625 116.847656 57.464844 114.976562 C 56.566406 114.378906 56.117188 113.480469 56.265625 112.882812 C 56.339844 112.285156 58.210938 111.460938 58.210938 111.460938 " clip-rule="nonzero"/></clipPath></defs><g clip-path="url(#83107dd6f9)"><g clip-path="url(#19107b823e)"><path fill="#ffffff" d="M 0.335938 0 L 260.613281 0 L 260.613281 192.46875 L 0.335938 192.46875 Z M 0.335938 0 " fill-opacity="1" fill-rule="nonzero"/></g></g><g clip-path="url(#4a54bf6b05)"><g clip-path="url(#4340900b87)"><path fill="#ffffff" d="M 53.273438 91.640625 L 148.089844 91.640625 L 148.089844 130.539062 L 53.273438 130.539062 Z M 53.273438 91.640625 " fill-opacity="1" fill-rule="nonzero"/></g></g></svg>